<svg xmlns="http://www.w3.org/2000/svg" viewBox="0 0 46 46">
  <path d="M7.56 38H4.44a.44.44 0 0 0-.44.44v3.12a.44.44 0 0 0 .44.44h3.12a.44.44 0 0 0 .44-.44v-3.12a.44.44 0 0 0-.44-.44zM41.56 4h-3.12a.44.44 0 0 0-.44.44v3.12a.44.44 0 0 0 .44.44h3.12a.44.44 0 0 0 .44-.44V4.44a.44.44 0 0 0-.44-.44zM7.56 4H4.44a.44.44 0 0 0-.44.44v3.12a.44.44 0 0 0 .44.44h3.12A.44.44 0 0 0 8 7.56V4.44A.44.44 0 0 0 7.56 4zM41.56 38h-3.12a.44.44 0 0 0-.44.44v3.12a.44.44 0 0 0 .44.44h3.12a.44.44 0 0 0 .44-.44v-3.12a.44.44 0 0 0-.44-.44z"/>
  <path d="M43 3v40H3V3h40m2-3H1a1 1 0 0 0-1 1v44a1 1 0 0 0 1 1h44a1 1 0 0 0 1-1V1a1 1 0 0 0-1-1z"/>
  <path d="M32 19.83L27.14 24H25v5h-4v-8h4.47L28 18.85v-2.7L25.5 14h-4.66L18 16.23V19h-4v-4.83q1.13-1.08 2.37-2.1c.82-.68 1.65-1.37 2.47-2.07h8.32L32 14.17zM25 36h-4v-4h4z"/>
</svg>
