<svg xmlns="http://www.w3.org/2000/svg" viewBox="0 0 194.29 157.24"><path d="M77.68 144.9v-17c0-5.71 0-5.64-5.7-5.62-1.79 0-2.19.68-2.17 2.33.07 6.85 0 13.7 0 20.55v2.4c-4.78 0-9.27-.12-13.75.05-2.12.08-2.64-.52-2.64-2.63.08-23.31 0-46.63 0-69.94 0-2.92 0-2.93-3-2.93H11.58a1.26 1.26 0 0 1-1.26-1.24c-.07-3.94-.05-8.44-.05-12.58A1.24 1.24 0 0 1 11.6 57h122.51c3.68 0 3.69 0 3.69 3.78v10.14a1.25 1.25 0 0 1-1.25 1.25h-5.41c1.24 3.21 2.35 6.23 3.62 9.18a2.3 2.3 0 0 0 1.74.9c3.12.09 6.23 0 9.34.06 1.72.06 2.2-.51 2.19-2.25-.08-10.37.05-30.68 0-32.06a1.25 1.25 0 0 0-1.26-1.24H95c5.14-6.43 7.64-13.3 6.94-21.21A27.55 27.55 0 0 0 91.48 6c-9.73-8-25-8-34.79-.13A27.38 27.38 0 0 0 46.46 22.7c-1.63 8.88.65 16.79 6.65 24.16H1.27A1.27 1.27 0 0 0 0 48.12v32.49a1.27 1.27 0 0 0 1.27 1.27h42.46V156a1.25 1.25 0 0 0 1.27 1.23h42v-9.71h-9.32zM56.22 26.64a17.83 17.83 0 1 1 17.66 19.1 17.82 17.82 0 0 1-17.66-19.1z"/><path d="M146.84 112.69c1.57 0 2.16-.5 1.91-2.47a23.48 23.48 0 0 1 0-5.43c.18-1.77-.36-2.35-1.91-2.33-5.05.05-22.85 0-27.2 0 11.16-9.42 8.59-21.65 2.89-27.65a18.31 18.31 0 0 0-24.8-1.53A17.42 17.42 0 0 0 91.32 85c-.8 7 1.8 12.65 7.76 17.48H72.15c-2 0-2.61.65-2.27 3a14.48 14.48 0 0 1 0 4.36c-.38 2.43.39 2.93 2.3 2.9 6.78-.08 21.95 0 23 0V156a1.28 1.28 0 0 0 1.28 1.28h7.57a1.28 1.28 0 0 0 1.28-1.28v-16.86h8V156a1.25 1.25 0 0 0 1.25 1.24h7.63a1.23 1.23 0 0 0 1.24-1.24v-43.33c1.11-.07 16.57-.04 23.41.02z"/><path d="M191.92 105.43a8.08 8.08 0 0 0-11.43 0l-26.63 26.63-10.46-10.46A8.09 8.09 0 0 0 132 133l16.17 16.17a8.09 8.09 0 0 0 11.44 0l32.34-32.35a8.08 8.08 0 0 0-.03-11.39z"/></svg>