<svg xmlns="http://www.w3.org/2000/svg" viewBox="0 0 149 149">
  <path d="M134.36 85.85a15.19 15.19 0 0 0-3.69-9.13c-.55-.63-1-1.31-1.6-1.94a1.17 1.17 0 0 1-.27-1.27c.32-.88.6-1.78.92-2.66a19 19 0 0 0 .95-8.35 36.69 36.69 0 0 0-1.28-6.32c-.57-2-1.31-4.06-2-6.08-.05-.13-2.51-4.65-3.36-6.09a64.25 64.25 0 0 0-4-6.08c-1-1.35-2.06-2.69-3.07-4a64.76 64.76 0 0 0-9.24-10.12 65 65 0 0 0-5.8-4.69c-1.86-1.31-3.76-2.57-5.68-3.79a37.85 37.85 0 0 0-5-2.66c-1.79-.79-3.66-1.4-5.52-2a35 35 0 0 0-13.19-1.73l-5.39.67a41.57 41.57 0 0 0-6.57 1.83 56.13 56.13 0 0 0-7.33 3.42 73.76 73.76 0 0 0-6.62 3.82c-1.21.82-2.43 1.63-3.63 2.47a87.39 87.39 0 0 0-7.32 6c-1.13 1-2.25 2.06-3.29 3.17-1.56 1.68-3.07 3.42-4.57 5.16a40.1 40.1 0 0 0-4 5.48c-.8 1.34-1.51 2.74-2.22 4.14a38.75 38.75 0 0 0-2.67 6.74c-.45 1.56-.8 3.16-1.26 4.72a24.36 24.36 0 0 0-.86 5.36 26.11 26.11 0 0 0 .58 7.16 27.45 27.45 0 0 0 1.4 4.34c.44 1.13.86 2.25 1.32 3.45l-.4.52a34.84 34.84 0 0 0-3 4 15.26 15.26 0 0 0-1.58 4.13 25 25 0 0 0-.19 9.28 20.84 20.84 0 0 0 .95 3.37 16.58 16.58 0 0 0 2.53 4.93c.9 1.15 1.87 2.24 2.82 3.35a21.71 21.71 0 0 0 4.34 3.78 24.92 24.92 0 0 0 7 3.27 2.69 2.69 0 0 1 1.73 1.24c.19.32.43.62.63.93.81 1.22 1.6 2.45 2.42 3.65a11 11 0 0 0 1.15 1.4c.41.41.61 1.06 1.26 1.22 0 0 0 .11.08.16a2 2 0 0 0 .29.4c.42.4.85.8 1.3 1.18a28.23 28.23 0 0 0 12.22 6.1 3.61 3.61 0 0 1 2.28 1.4c.14.18.29.36.44.53a23.38 23.38 0 0 0 5.34 5.07 20.76 20.76 0 0 0 6.13 2.65c.22.05 4.24.67 4.67.68.94 0 1.88-.06 2.81 0a40.64 40.64 0 0 0 9.08-2.28c.16-.15 2.41-1.22 2.59-1.34a6.68 6.68 0 0 0 .8-.6c1-.82 2-1.6 2.87-2.5a17.25 17.25 0 0 0 2.6-3.45 1.88 1.88 0 0 1 1-.88c.67-.22 1.34-.45 2-.65a29 29 0 0 0 6.07-2.33 27.4 27.4 0 0 0 7.74-6.38 23.38 23.38 0 0 0 3.77-6.12 2.66 2.66 0 0 1 1.84-1.62c1-.3 1.91-.61 2.87-.9a18.84 18.84 0 0 0 8-4.84 32.26 32.26 0 0 0 4-5.19 21.66 21.66 0 0 0 2.45-4.82 24.8 24.8 0 0 0 1.36-10.36zM32.63 109c-.73-.36-1.47-.69-2.19-1.07a23.05 23.05 0 0 1-7.54-6.3 17 17 0 0 1-3.61-9.66 18.56 18.56 0 0 1 1-7.28 8.53 8.53 0 0 1 3.3-4.45 6 6 0 0 1 5.05-.77l.35.13a1.19 1.19 0 0 0 .15.09c-.08 1.93-.16 3.84-.24 5.83l-.56-.22a4 4 0 0 0-2.13-.4c-.3 0-.69 0-.81.37s.25.54.48.72A19.15 19.15 0 0 1 29 88.64a1.9 1.9 0 0 1 .49 1A9.37 9.37 0 0 0 31.45 94c.39.49.85.92 1.31 1.41a23.77 23.77 0 0 0 0 13.45zm80.72-37.61a9.89 9.89 0 0 1-1 3.1 26.82 26.82 0 0 1-2.57 4.15 19.69 19.69 0 0 0-2.45 3.86 5.6 5.6 0 0 0 0 4.62 4 4 0 0 0 1.49 1.7 3 3 0 0 1 0 .41 11.13 11.13 0 0 0-.16 2.94 4.68 4.68 0 0 0 2.08 3.75 14.15 14.15 0 0 0 1.86.87c.11.75.26 1.61.34 2.48a23.73 23.73 0 0 1-.47 7.23 24.05 24.05 0 0 1-4.47 9.4 25.35 25.35 0 0 1-4.66 4.71 36.59 36.59 0 0 1-9.68 5.33c-.61.22-1.23.41-1.83.66a1.62 1.62 0 0 0-.64.45 26.43 26.43 0 0 1-6.38 5.79 18.88 18.88 0 0 1-12.63 2.91 20.63 20.63 0 0 1-8.48-3 30.15 30.15 0 0 1-6.52-5.55 2.1 2.1 0 0 0-1-.63 34.54 34.54 0 0 1-9.76-4.9 28.92 28.92 0 0 1-8.4-8.94 21.25 21.25 0 0 1-2.82-8.88 18.24 18.24 0 0 1 .53-6.58c0-.2.12-.4.19-.63l.62-.07a3.54 3.54 0 0 0 3.09-3 9 9 0 0 0-.31-4.21l-.08-.27a.36.36 0 0 1 .06-.15A6 6 0 0 0 40 81c-1.13-1.55-2.29-3.09-3.37-4.68a12.23 12.23 0 0 1-2.19-5.54 1.93 1.93 0 0 1 0-.68 32.86 32.86 0 0 1 2.13-5.6c3 .65 5.61-.65 8.22-2 0 .23.07.38.09.54.09.83.16 1.66.27 2.49a1.17 1.17 0 0 0 .41.9c.33-.11.39-.4.49-.67a19.78 19.78 0 0 1 2.06-4.27 11.35 11.35 0 0 1 4.63-4.11 8.77 8.77 0 0 1 5-.68 12.63 12.63 0 0 1 5.61 2.3 24.2 24.2 0 0 1 4.59 4.51 8.19 8.19 0 0 0 .59.59.71.71 0 0 0 0-.76c-.32-1-.65-2-1-3a29 29 0 0 0-2.8-5.53c-.32-.49-.71-.93-1.06-1.4l-.36-.5c3.72-1.45 18.07-1.59 21.34-.21a28.23 28.23 0 0 0-5.06 9.66c-.17.53-.27 1.09-.39 1.64 0 0 0 .11.06.19.28 0 .39-.21.53-.38.78-.9 1.52-1.84 2.34-2.7a15.54 15.54 0 0 1 4.67-3.44 9.83 9.83 0 0 1 7.37-.66 10.18 10.18 0 0 1 4.84 3.53 16.88 16.88 0 0 1 2.55 4.58 7.22 7.22 0 0 0 .33.81 3.27 3.27 0 0 0 .29.39.84.84 0 0 0 .43-.71c.09-.66.17-1.32.25-2 0-.26 0-.52.06-.89l.8.39a11.93 11.93 0 0 0 4.59 1.38 13.38 13.38 0 0 0 2 0 .58.58 0 0 1 .67.39 50.05 50.05 0 0 1 2.27 5.77 1.68 1.68 0 0 1 .1.69zM86.7 35.46Q83.12 29.24 79.55 23h-.07a1 1 0 0 1-.12.17l-5.24 5-.11.09-.16-.12-5.25-4.95a1.39 1.39 0 0 1-.15-.19h-.06l-7.2 12.77c-.06.1-.13.19-.19.28v.06l3.49 2.13.1.07A41.23 41.23 0 0 0 58.76 40l-.76.28c-.12-.28-.23-.54-.33-.8a12.38 12.38 0 0 1-.86-5.21 13.47 13.47 0 0 1 3.4-8.47 17.69 17.69 0 0 1 11.41-5.94 18.68 18.68 0 0 1 11.67 2.22 14.92 14.92 0 0 1 6.7 7 13.3 13.3 0 0 1 .56 9.71c-.13.41-.3.82-.48 1.32-.56-.19-1-.33-1.54-.5a34.54 34.54 0 0 0-5.29-1.37h.11c.7-.47 1.41-.9 2.13-1.33.5-.31 1-.59 1.52-.88v-.07c-.1-.19-.21-.34-.3-.5zm-3.87 2.84a50.21 50.21 0 0 0-8.49-.58 61.1 61.1 0 0 0-6.2.27c-.67.07-1.34.17-2 .28a.61.61 0 0 0 .07-.14c.37-1 .76-2 1.12-3 .68-2 1.35-3.91 2-5.86a2.4 2.4 0 0 1 .13-.32l4.88 4.75 4.88-4.69c0 .12.1.21.13.31l3.33 8.71a.62.62 0 0 0 .15.27zM61.1 42.92a36.07 36.07 0 0 1 7.9-1.66 61 61 0 0 1 11.39.05 34.76 34.76 0 0 1 10 2.41 33.46 33.46 0 0 1 8.4 4.93 38.71 38.71 0 0 1 7.77 8.54c.82 1.23 1.57 2.52 2.35 3.78.14.23.25.47.38.7-.19.25-.41.15-.6.14a9.79 9.79 0 0 1-4-1.35c-.5-.27-1-.58-1.45-.87a.94.94 0 0 1-.48-.75 14.93 14.93 0 0 0-1.66-5.42A9.24 9.24 0 0 0 95 48.5a8.8 8.8 0 0 0-6 .85 9.54 9.54 0 0 0-1.24.72 1 1 0 0 1-.82.13c-1.33-.28-2.66-.61-4-.78-1.92-.24-3.86-.39-5.8-.52a56.36 56.36 0 0 0-8 .19 48.1 48.1 0 0 0-7.73 1.26 1.32 1.32 0 0 1-1.17-.21A10.24 10.24 0 0 0 57 48.62 8.17 8.17 0 0 0 48.4 51a12.78 12.78 0 0 0-3.15 6.58 4.18 4.18 0 0 1-.36 1.5 3.32 3.32 0 0 1-1.23.82 14 14 0 0 1-4.23 1.7c-.38.07-.77.11-1.16.16l-.11-.14c.38-.61.75-1.24 1.14-1.84a42.87 42.87 0 0 1 8.63-9.55 40 40 0 0 1 13.17-7.31zm53.41 21.91a56.26 56.26 0 0 0-4.51-8.57 44.91 44.91 0 0 0-6.5-7.86 35.32 35.32 0 0 0-6.15-4.82c-1.28-.79-2.65-1.44-4-2.15l-.6-.31c.24-.73.48-1.37.66-2a15 15 0 0 0-.41-9.69 16.71 16.71 0 0 0-6.52-8A21 21 0 0 0 77.26 18l-6.09.05a20.22 20.22 0 0 0-8.35 3.05 18.56 18.56 0 0 0-5.77 5.73 15.7 15.7 0 0 0-2.42 8.42 15.49 15.49 0 0 0 1.15 5.61c.06.14.1.29.16.46a1.3 1.3 0 0 1-.25.18 41.53 41.53 0 0 0-8.45 5.11 50 50 0 0 0-9.16 9.23 39 39 0 0 0-3.28 5.09 33.4 33.4 0 0 0-3.07 7.27c-.65 2.44-1.23 4.9-1.84 7.35l-.16.61a2.29 2.29 0 0 1-.41 0 9.14 9.14 0 0 0-4.16-.16c-.43.09-.48.06-.72-.39a15.1 15.1 0 0 1-.93-2 27.66 27.66 0 0 1-1.22-14 40.74 40.74 0 0 1 4.25-12.92 53 53 0 0 1 9.77-13.12 63.8 63.8 0 0 1 6.1-5.4 86.69 86.69 0 0 1 11.07-7.44 62.54 62.54 0 0 1 11.94-5.17 31.62 31.62 0 0 1 12.26-1.37 34.57 34.57 0 0 1 6.74 1.36 43.63 43.63 0 0 1 8.78 3.82 60.92 60.92 0 0 1 7.31 4.85 72 72 0 0 1 5.94 5.1 75.74 75.74 0 0 1 9 10.47 74.47 74.47 0 0 1 4.32 6.53 59.5 59.5 0 0 1 4.43 9.12 35.19 35.19 0 0 1 1.81 6.84 21.92 21.92 0 0 1-.38 9.26c-.28 1-.72 1.91-1.08 2.86a.69.69 0 0 1-.69.43 9.56 9.56 0 0 0-5.52 1.33l-.41.22c-.06-.24-.14-.45-.17-.66a51.92 51.92 0 0 0-1.59-6.51c-.44-1.45-1.05-2.92-1.66-4.38zm13.94 31.74a22.25 22.25 0 0 1-5.53 7.75 16.75 16.75 0 0 1-5.79 3.54c-.39.13-.79.22-1.34.38.09-.55.15-1 .22-1.37a30 30 0 0 0 .5-4.73 27.87 27.87 0 0 0-.49-5.61 1.33 1.33 0 0 1 .31-1.24 9.09 9.09 0 0 0 1.89-4.71c.23-1.85.2-1.87 1.54-3.19.71-.71 1.53-1.29 2.29-1.94a3.33 3.33 0 0 0 .55-.51c.18-.24.13-.41-.15-.54a2 2 0 0 0-1.47-.13c-.58.16-1.14.4-1.71.62-.17.06-.32.16-.57.28v-.58c-.06-1.28-.11-2.55-.19-3.82a.78.78 0 0 1 .26-.72 6.65 6.65 0 0 1 5.9-1.75 5.25 5.25 0 0 1 2.85 1.7 9.07 9.07 0 0 1 1.91 3.43 18.52 18.52 0 0 1-.98 13.14z"/>
  <path d="M103.73 85.34c-.86-.49-1-.44-1.36.49a13 13 0 0 1-1.7 3.27 8.19 8.19 0 0 1-5.33 3.55c-.22 0-.44 0-.68.06 0-.23 0-.39-.06-.56-.08-.85-.13-1.71-.27-2.55a.89.89 0 0 1 .34-1A10.53 10.53 0 0 0 97 85.77a18.94 18.94 0 0 0 2.29-7.37 29 29 0 0 0-.19-7.62 18.06 18.06 0 0 0-2-6.15 8.76 8.76 0 0 0-4.56-4.11 8 8 0 0 0-8.74 2.07 12.68 12.68 0 0 0-2.7 4.76 25.35 25.35 0 0 0-1.14 9.59v.58a29.38 29.38 0 0 0-11.33.16v-.65a23.64 23.64 0 0 0-1.22-9.14 12.19 12.19 0 0 0-3.46-5.43 7.63 7.63 0 0 0-10.1 0 12.37 12.37 0 0 0-3.33 5A22.88 22.88 0 0 0 49 75.59a22.21 22.21 0 0 0 1.82 9.34A12.91 12.91 0 0 0 53.69 89c.32.32.84.55 1 .92a3.83 3.83 0 0 1-.06 1.42c0 .39-.06.78-.09 1.2a6.19 6.19 0 0 1-3.2-.54 8.74 8.74 0 0 1-3.25-2.5 13.48 13.48 0 0 1-2.43-4.14c-.31-.83-.45-.88-1.23-.48a6.73 6.73 0 0 0-2.54 2.37 10.65 10.65 0 0 0-1.84 7.14 6.52 6.52 0 0 0 3.28 5.33 6.65 6.65 0 0 0 2.23.81l.63.14a1.64 1.64 0 0 1 .06.25c0 .18 0 .37.06.56a9.14 9.14 0 0 0 1.24 4 7.18 7.18 0 0 0 4.68 3.41 11 11 0 0 0 4.85-.12c.24-.06.48-.09.74-.14a1.7 1.7 0 0 1 .12.33 6 6 0 0 0 1.9 3.45 3.11 3.11 0 0 1 .93 1.72 40 40 0 0 0 3.5 9.63 12.45 12.45 0 0 0 3.64 4.41 11.08 11.08 0 0 0 9.14 2 8.89 8.89 0 0 0 5-2.85 20.47 20.47 0 0 0 3.12-4.9 35.38 35.38 0 0 0 2.64-9 1.55 1.55 0 0 1 .42-.88 5.43 5.43 0 0 0 1.37-2.29L90 109l.69.13c.66.12 1.31.29 2 .36a10 10 0 0 0 6.41-1.24 6.6 6.6 0 0 0 3.47-6.42v-.71l1.05-.26a5.91 5.91 0 0 0 3.75-2.72 7 7 0 0 0 1-3.58 11.46 11.46 0 0 0-1.76-6.32 8.11 8.11 0 0 0-2.88-2.9zM83 67.15a1 1 0 0 1 .29-.32 4.67 4.67 0 0 1 6 .44 8.55 8.55 0 0 1 2 3.77 20 20 0 0 1 .16 9.6 18.61 18.61 0 0 1-.57 1.79 1.75 1.75 0 0 1-.23.38l-2.38-2c.1-.47.24-1 .33-1.52a14.54 14.54 0 0 0-.42-7.29 4.2 4.2 0 0 0-2.12-2.6 3.76 3.76 0 0 0-3.32-.09l-.48.22a11.74 11.74 0 0 1 .74-2.38zm2.23 8.13a2.82 2.82 0 0 1-.4 1.5c-.47.78-1.12.8-1.62 0a3.66 3.66 0 0 1 0-3.53.82.82 0 0 1 1.48 0 3.15 3.15 0 0 1 .54 2.03zm-19.8-7.64c.25.64.46 1.3.67 2a1.24 1.24 0 0 1 0 .36l-.5-.19a3.85 3.85 0 0 0-3.75.43 3.76 3.76 0 0 0-1.25 1.46 9.84 9.84 0 0 0-.93 4.06 14 14 0 0 0 .52 5.39 1 1 0 0 1 0 .24l-2.36 2.19c-.16-.38-.33-.71-.45-1.06a17.65 17.65 0 0 1-.91-6 18.39 18.39 0 0 1 .9-6 5.88 5.88 0 0 1 2.5-3.34 4.63 4.63 0 0 1 5.1.08 1.11 1.11 0 0 1 .46.38zm-.06 8a2.6 2.6 0 0 1-.55 1.51.78.78 0 0 1-1.35.06 2.5 2.5 0 0 1-.55-1.21 3.78 3.78 0 0 1 .19-2 1.6 1.6 0 0 1 .1-.23c.2-.36.45-.69.9-.69a1 1 0 0 1 .9.68 4 4 0 0 1 .36 1.93zm-8.34 9a12.54 12.54 0 0 0-1.62 3c0 .11-.11.22-.2.39a6.9 6.9 0 0 1-1.6-1.69 14.29 14.29 0 0 1-2.25-5.13 24 24 0 0 1 0-10.76A13.08 13.08 0 0 1 54 64.68a6 6 0 0 1 5.12-2.43 6.15 6.15 0 0 1 4.16 1.94 6 6 0 0 1 1.24 1.72l-.52-.15a5.76 5.76 0 0 0-6.28 2.18A10.77 10.77 0 0 0 56 72.53a23.37 23.37 0 0 0-.12 7.18 14.91 14.91 0 0 0 1.2 4.14c.1.3.2.55-.08.86zM78.39 128a9.16 9.16 0 0 1-8.1-.35 8.75 8.75 0 0 1-3.39-3c-.31-.46-.33-.51 0-1a6.78 6.78 0 0 1 2.1-2.1 10 10 0 0 1 7-1.29 9.26 9.26 0 0 1 4.25 1.74 7.08 7.08 0 0 1 2 2.29 8.25 8.25 0 0 1-3.86 3.71zm7.28-12.63a.76.76 0 0 1-.39.28 20.92 20.92 0 0 1-4.54 1.18 45.87 45.87 0 0 1-9.44.36 30.14 30.14 0 0 1-7.52-1.28 1.46 1.46 0 0 1-1.13-1.65c.73.17 1.41.37 2.1.47a11.24 11.24 0 0 0 7.38-1.34 1.23 1.23 0 0 1 .65-.16c1.06 0 2.13 0 3.19.08a1.55 1.55 0 0 1 .7.21 10.49 10.49 0 0 0 6.56 1.41c.87-.09 1.72-.34 2.61-.52a1.73 1.73 0 0 1-.17.94zm4.87-17.7a14 14 0 0 1-5.17 4.9 20.64 20.64 0 0 1-8.69 2.63 23.69 23.69 0 0 1-9.35-1 16.69 16.69 0 0 1-7.15-4.36 10.64 10.64 0 0 1-3-8.58A10.41 10.41 0 0 1 60 85a15 15 0 0 1 5.67-3.82 23.35 23.35 0 0 1 6.44-1.52c.84-.07 1.67-.11 2.5-.16a26 26 0 0 1 7.3 1.07 15.76 15.76 0 0 1 7.46 4.64 10.42 10.42 0 0 1 1.17 12.44zm3.14-10.42c-.46-.77-.87-1.5-1.31-2.2A13.13 13.13 0 0 0 91.6 84a.57.57 0 0 1-.1-.68 18.46 18.46 0 0 0 1.28-9 16.91 16.91 0 0 0-.92-4.4 7.94 7.94 0 0 0-2.18-3.39 5.41 5.41 0 0 0-5.26-1.19l-.64.16c1.25-2.11 2.88-3.5 5.3-3.69a6.28 6.28 0 0 1 5.65 2.51A11.83 11.83 0 0 1 97 69a26.08 26.08 0 0 1 .56 9.52 17.77 17.77 0 0 1-1.67 5.75 10.3 10.3 0 0 1-1.75 2.58c-.14.15-.3.23-.46.38z"/>
  <path d="M74.5 149A74.5 74.5 0 1 1 149 74.5 74.58 74.58 0 0 1 74.5 149zm0-143.77a69.27 69.27 0 1 0 69.27 69.27A69.34 69.34 0 0 0 74.5 5.23z"/>
</svg>
