<svg xmlns="http://www.w3.org/2000/svg" viewBox="0 0 358.48 378.82"><path d="M187.15 349.08v-41c0-13.76 0-13.6-13.74-13.55-4.32 0-5.28 1.65-5.24 5.62.18 16.5.08 33 .08 49.5v5.78c-11.53 0-22.33-.29-33.11.13-5.11.2-6.38-1.26-6.37-6.34.19-56.16.12-112.33.12-168.49 0-7 0-7.06-7.24-7.06H28.09a3 3 0 0 1-3-3c-.17-9.5-.13-20.35-.12-30.31a3 3 0 0 1 3-3h295.1c8.89 0 8.9 0 8.91 9.11v24.42a3 3 0 0 1-3 3h-13c3 7.72 5.65 15 8.71 22.1.49 1.15 2.74 2.14 4.2 2.18 7.5.21 15-.1 22.49.14 4.14.14 5.31-1.24 5.28-5.41-.19-25 .06-43.13.05-68.13 0-1.14.06-5.79 0-9.1a3 3 0 0 0-3-3H228.84c12.39-15.49 18.41-32 16.72-51.09-1.72-19.33-10.33-34.86-25.17-47.07-23.39-19.24-60.11-19.36-83.82-.29C123.5 24.74 115 38.1 111.92 54.69c-3.92 21.39 1.58 40.44 16 58.2H3.05a3 3 0 0 0-3 3v78.31a3.06 3.06 0 0 0 3.06 3.06h102.24v178.52a3 3 0 0 0 3 3h101.27v-23.4h-22.47zM135.44 64.17a43 43 0 0 1 85.82 4c-.23 23.13-19.81 42.12-43.28 42a42.94 42.94 0 0 1-42.54-46z"/><path d="M358.34 265.54a57.88 57.88 0 0 1 0-13.09c.43-4.28-.87-5.66-4.61-5.62-12.16.14-24.32.06-36.49.06h-29c26.88-22.7 20.69-52.16 6.95-66.62-15.6-16.42-42.13-18.4-59.74-3.68-8.75 7.31-14.15 16.69-15.45 28.18-1.92 16.9 4.34 30.47 18.7 42.11h-7.41c-19.16 0-38.32.12-57.48-.1-4.88-.05-6.27 1.57-5.45 7.22a35.2 35.2 0 0 1 0 10.5c-.94 5.84.93 7 5.53 7 16.33-.19 32.66-.08 49-.08h6.47v104.3a3.09 3.09 0 0 0 3.09 3.1h18.23a3.09 3.09 0 0 0 3.08-3.09v-40.52h19.31v40.57a3 3 0 0 0 3 3h18.4a3 3 0 0 0 3-3V271.86c2.59-.17 4.71-.43 6.83-.43 16.49 0 33-.09 49.48 0 3.75.07 5.22-1.16 4.56-5.89z"/></svg>
