<svg xmlns="http://www.w3.org/2000/svg" viewBox="0 0 46 46"><title>icon</title><path d="M20,4V20H4V4H20m2-3H2A1,1,0,0,0,1,2V22a1,1,0,0,0,1,1H22a1,1,0,0,0,1-1V2a1,1,0,0,0-1-1Z" transform="translate(-1 -1)" style="fill:#fff"/><path d="M44,4V20H28V4H44m2-3H26a1,1,0,0,0-1,1V22a1,1,0,0,0,1,1H46a1,1,0,0,0,1-1V2a1,1,0,0,0-1-1Z" transform="translate(-1 -1)" style="fill:#fff"/><path d="M44,28V44H28V28H44m2-3H26a1,1,0,0,0-1,1V46a1,1,0,0,0,1,1H46a1,1,0,0,0,1-1V26a1,1,0,0,0-1-1Z" transform="translate(-1 -1)" style="fill:#fff"/><path d="M20,28V44H4V28H20m2-3H2a1,1,0,0,0-1,1V46a1,1,0,0,0,1,1H22a1,1,0,0,0,1-1V26a1,1,0,0,0-1-1Z" transform="translate(-1 -1)" style="fill:#fff"/><line x1="40" y1="30" x2="30" y2="40" style="fill:none;stroke:#fff;stroke-linecap:round;stroke-linejoin:round;stroke-width:2px"/><line x1="30" y1="30" x2="40" y2="40" style="fill:none;stroke:#fff;stroke-linecap:round;stroke-linejoin:round;stroke-width:2px"/></svg>