<svg xmlns="http://www.w3.org/2000/svg" viewBox="0 0 46 40.34">
  <path d="M26 .28L13.67 10.39a1.36 1.36 0 0 1-.65.29L1.09 11.99A1.24 1.24 0 0 0 0 13.17v14a1.13 1.13 0 0 0 1.09 1.16l12 1.31a1.37 1.37 0 0 1 .66.29L26 40.06a1.2 1.2 0 0 0 2-.89V1.22a1.26 1.26 0 0 0-2-.94zM38.87 34.54L37 32.25a15.36 15.36 0 0 0 3.17-3.4 15.74 15.74 0 0 0-2.41-20.68l2-2.22a18.81 18.81 0 0 1 3 24.61 19.43 19.43 0 0 1-3.89 3.98z"/>
  <path d="M34.29 28.26l-1.92-2.29a6.9 6.9 0 0 0 1.4-1.55 7.91 7.91 0 0 0-1.4-10.64l1.92-2.29a11 11 0 0 1 1.92 14.56 8.08 8.08 0 0 1-1.92 2.21z"/>
</svg>
